<svg xmlns="http://www.w3.org/2000/svg" xmlns:xlink="http://www.w3.org/1999/xlink" fill="none" version="1.1" width="106.4000244140625" height="68.60000610351562" viewBox="0 0 106.4000244140625 68.60000610351562"><g><path d="M10.8,64.4Q9,64.4,6.5,62Q4,59.6,2.40002,58.4Q2,55.8,1,53.7Q0,51.6,0,49.2Q0,45.6,2.70007,40.7Q5.40002,35.8,9.70007,31Q14,26.2,18.5,23Q23,19.8,26.6,19.8L26.6,19.4Q29.4,20,31.9,23Q34.4,26,34.4,28.6Q34.4,31,31.5,33.5Q28.6,36,24.5,38.1Q20.4,40.2,16.5,41.4Q12.6,42.6,10.4,42.6L10.4,43Q9,45.2,7.70007,48.5Q6.40002,51.8,6.40002,54.6Q6.40002,55.6,7,56.8Q8.40002,57.8,10.6,57.7Q12.8,57.6,14.2001,57.8L14.4,58L15,57Q17.6,56.8,20,55.8L20,54.6L21.2001,54.6L21.2001,54L22,54.2Q23,53.8,23.5,53.3Q24,52.8,24.8,52.4L26,53L26,52.8L29.6,49.4L29.8,49.4L30.4,49.8L30.4,49.6Q33,47.2,36,45.2Q39,43.2,40.4,40L42.6,38.4L43,38.8Q43,40.2,42,41.4Q41,42.6,39.6,43Q38,46.8,34.9,49.4Q31.8,52,28.6,54.8L28,54.8L27.8,55.8Q24,58.4,19.9,61.4Q15.8,64.4,10.8,64.4ZM14.6,38.8L15,38.8L15,38.4Q16.4,38,19.9,36Q23.4,34,26.6,31.7Q29.8,29.4,30,28.4L30.2001,28.4L30,27.4L30.2001,26.4Q30,26.4,29.4,26.3Q28.8,26.2,28.4,26.2Q25.8,28,23.2001,29.6Q20.6,31.2,18,32.8L17.6,32.8L17.4,34.4Q16.2001,35.2,15.6,36.3Q15,37.4,14.6,38.8ZM45,38.2L43.8,37.8L43.6,36.6L45.6,36L45.8,36.6L45,38.2ZM66.4,13Q65.8,13,63.3,12.5Q60.8,12,60.8,11.2Q60.8,8.2,63.9,6.8Q67,5.39999,69,4L69.4,4Q72.2001,1.8,76.1,1Q80,0.199997,83.4,0L83.2001,0.199997Q79.4,1.39999,76.4,4.5Q73.4,7.60001,70.9,10.3Q68.4,13,66.4,13ZM40.6,68.6L37.4,64Q37.2001,62.6,36.8,61.3Q36.4,60,36.4,58.6Q36.4,56.8,36.6,55Q36.8,53.2,37,51.4L38.4,48L38.2001,47.8Q39.2001,45.4,40.2001,41.6Q41.2001,37.8,42.7001,33.9Q44.2001,30,46.4,27.3Q48.6,24.6,51.8,24.6Q54,24.6,56.8,26.2Q59.6,27.8,59.6,30.4Q59.6,31.4,58.1,34Q56.6,36.6,54.6,39.7Q52.6,42.8,50.7001,45.1Q48.8,47.4,48,47.8Q46.2001,51,43,55.2Q39.8,59.4,39.8,63Q39.8,64.4,40.3,65.6Q40.8,66.8,40.8,68.2L40.6,68.6ZM61.2001,65.4Q59,65.4,58.1,63.5Q57.2001,61.6,57.2001,59.8Q57.2001,54.6,59.7001,49Q62.2001,43.4,64.7001,38.7Q67.2001,34,67.2001,31.4Q67.2001,30.2,65.8,30.2Q65.2001,30.2,64,30.6L64,29.8L68.8,24.2L68.8,24Q69.8,23,70.6,22Q71.4,21,72.2001,20.2L74,19Q76.2001,19.2,78.3,20.1Q80.4,21,81,23.6L80.8,23.8Q81,25.4,79.4,27.2Q77.8,29,76.6,30Q75.4,32.2,73.9,34.1Q72.4,36,71.2001,38.2L71.2001,40.2L70.4,41.8L70,41.8Q69.4,43,68.9,44.4Q68.4,45.8,68.4,47.4L69.4,49Q70,48.4,71.7001,47.1Q73.4,45.8,74.8,44.4Q76.2001,43,76.2001,42.4L78.4,40.4Q79.4,37.4,82.8,33.9Q86.2001,30.4,88.6,28.4L89.2001,26.8Q90.4,26.2,91.7001,25.4Q93,24.6,94.4,24.6Q96,24.6,97.3,25.4Q98.6,26.2,100,27Q100,27.8,100.1,28.9Q100.2,30,100.2,31Q100.2,34.2,98.4,37Q96.6,39.8,94.8,42.8Q93,45.8,93,50.2Q93,50.8,93.1,52.9Q93.2001,55,93.7001,56.9Q94.2001,58.8,95.4,58.8L101.8,55.4L102.2,55.4Q102.6,54.2,103.7,53.2Q104.8,52.2,106.2,52.2L106.4,52.4Q106.4,53.4,104.7,55.4Q103,57.4,101.1,59.2Q99.2001,61,98.4,61.8Q97.6,62,96.6,62.1Q95.6,62.2,94.6,62.6L94,61.6Q89.6,61.2,86.7001,58.5Q83.8,55.8,83.8,51.4Q83.8,50,84.4,46.3Q85,42.6,85.9,39Q86.8,35.4,87.2001,34Q84.8,35.6,82.6,38.9Q80.4,42.2,78.6,44.4Q76.6,45.2,74.5,48.5Q72.4,51.8,70.2001,55.7Q68,59.6,65.8,62.5Q63.6,65.4,61.2001,65.4Z" fill="#C1121F" fill-opacity="1"/></g></svg>