<?xml version="1.0" standalone="no"?>
<!DOCTYPE svg PUBLIC "-//W3C//DTD SVG 20010904//EN"
 "http://www.w3.org/TR/2001/REC-SVG-20010904/DTD/svg10.dtd">
<svg version="1.0" xmlns="http://www.w3.org/2000/svg"
 width="1280.000000pt" height="640.000000pt" viewBox="0 0 1280.000000 640.000000"
 preserveAspectRatio="xMidYMid meet">
    <metadata>
Created by potrace 1.15, written by Peter Selinger 2001-2017
</metadata>
    <g transform="translate(0.000000,640.000000) scale(0.100000,-0.100000)"
fill="#FFFFFF" stroke="none">
        <path d="M4395 6034 c-142 -30 -235 -76 -374 -186 l-74 -58 -1786 0 c-1939 0
-1833 3 -1940 -55 -60 -33 -140 -114 -170 -173 -54 -105 -51 3 -51 -2142 0
-2192 -4 -2046 63 -2159 60 -101 166 -175 285 -200 37 -8 402 -11 1226 -11
l1173 0 7 -72 c17 -182 76 -484 103 -533 7 -12 12 -13 26 -3 15 12 16 17 2 63
-21 68 -52 230 -67 350 -16 131 -16 594 1 760 52 531 159 1037 336 1585 127
395 386 951 643 1380 211 350 419 626 651 863 133 136 217 206 122 102 -383
-420 -992 -1588 -1298 -2490 -139 -410 -244 -791 -313 -1135 -11 -58 -23 -114
-27 -125 -10 -38 13 -1 32 49 28 76 132 223 220 311 90 90 205 175 324 238 73
39 88 53 154 138 167 215 465 639 450 639 -20 0 -377 -91 -453 -115 -47 -15
-114 -40 -149 -56 -107 -49 -80 -25 56 47 246 132 433 218 625 288 45 17 51
24 131 154 375 615 603 1148 672 1572 19 119 20 345 1 442 -39 203 -163 391
-316 481 -78 45 -203 68 -285 51z"/>
        <path d="M4732 3226 c-314 -60 -491 -337 -428 -668 40 -207 132 -311 468 -527
340 -218 428 -298 480 -434 27 -70 26 -186 -2 -260 -62 -166 -257 -260 -473
-229 -235 34 -402 210 -432 455 -7 55 -9 57 -36 57 l-29 0 0 -285 0 -285 29 0
c23 0 34 8 49 35 32 53 56 54 206 6 181 -57 281 -75 386 -68 148 9 271 66 381
176 184 185 228 446 114 679 -64 130 -183 233 -492 428 -216 136 -287 190
-361 269 -79 84 -105 150 -106 265 0 73 4 92 26 136 51 97 148 157 282 174
275 35 479 -117 531 -394 6 -31 11 -36 36 -36 l29 0 0 250 0 250 -25 0 c-17 0
-29 -9 -40 -30 -20 -38 -53 -39 -162 -6 -171 52 -306 65 -431 42z"/>
        <path d="M6820 3234 c-14 -2 -59 -9 -100 -15 -223 -33 -444 -150 -608 -323
-357 -376 -411 -937 -130 -1357 156 -233 379 -401 627 -472 109 -31 151 -64
317 -248 209 -230 300 -306 450 -375 122 -57 227 -78 394 -78 147 -1 236 13
323 49 42 17 41 16 26 48 -11 23 -11 23 -62 10 -35 -10 -86 -13 -153 -10 -92
3 -109 7 -179 40 -127 61 -231 154 -404 362 -41 50 -95 111 -119 136 l-44 46
39 8 c122 23 310 109 424 194 142 108 293 299 358 455 137 329 105 727 -81
1016 -146 225 -396 409 -648 474 -134 35 -334 54 -430 40z m305 -99 c323 -72
556 -388 604 -818 56 -504 -97 -923 -408 -1111 -207 -126 -498 -139 -716 -31
-231 114 -394 361 -457 693 -20 105 -17 447 5 552 68 327 228 557 462 666 39
17 90 38 115 44 111 30 273 32 395 5z"/>
        <path d="M8210 3206 l0 -33 61 -7 c81 -8 138 -40 164 -91 19 -39 20 -63 23
-832 3 -826 -2 -978 -35 -1036 -21 -36 -75 -66 -133 -74 -38 -5 -40 -8 -40
-39 l0 -34 688 0 689 0 16 157 c21 198 22 183 -13 183 -24 0 -31 -5 -36 -28
-11 -43 -50 -115 -76 -139 -66 -62 -180 -85 -428 -86 -173 -2 -188 0 -235 21
-64 29 -91 55 -110 106 -14 36 -15 141 -13 896 3 852 3 855 25 902 25 54 51
74 121 90 49 12 52 14 52 45 l0 33 -360 0 -360 0 0 -34z"/>
        <path d="M10083 2829 c-34 -10 -63 -51 -63 -89 0 -70 74 -140 148 -140 59 0
92 33 92 91 0 94 -89 163 -177 138z"/>
        <path d="M11020 2584 c-6 -14 -10 -30 -10 -35 0 -25 -67 -137 -108 -182 -50
-53 -136 -101 -203 -112 -35 -6 -39 -10 -39 -36 l0 -29 109 0 110 0 3 -502 c3
-459 5 -507 21 -543 26 -57 53 -82 110 -101 89 -30 211 -6 332 64 97 56 255
197 255 226 0 3 -11 13 -25 22 -25 16 -26 16 -73 -28 -131 -122 -270 -175
-352 -133 -59 30 -61 51 -58 545 l3 445 168 3 167 2 0 50 0 50 -170 0 -170 0
0 160 0 160 -30 0 c-24 0 -33 -6 -40 -26z"/>
        <path d="M12260 2319 c-186 -27 -368 -189 -456 -408 -77 -190 -69 -450 18
-625 95 -190 283 -278 527 -248 131 17 209 44 265 93 48 42 116 139 161 228
l27 54 -25 24 -25 25 -31 -45 c-69 -101 -202 -185 -329 -207 -124 -23 -263 18
-333 97 -53 61 -100 178 -111 277 l-3 29 105 23 c205 44 332 101 469 211 136
108 192 196 177 276 -9 47 -63 127 -101 149 -70 40 -226 62 -335 47z m59 -149
c98 -50 136 -164 86 -261 -26 -48 -112 -116 -192 -149 -71 -30 -254 -82 -261
-75 -2 2 -3 36 -4 77 0 168 86 353 191 408 48 26 130 26 180 0z"/>
        <path d="M10058 2272 l-198 -46 0 -38 0 -38 43 7 c23 4 68 8 99 8 72 -1 102
-25 117 -97 12 -54 13 -312 3 -655 -7 -213 -8 -224 -30 -245 -17 -18 -36 -23
-91 -26 -67 -4 -69 -5 -73 -33 -3 -16 -2 -31 0 -34 3 -3 149 -5 324 -5 l318 0
0 35 0 35 -64 0 c-83 0 -123 15 -144 54 -15 28 -17 83 -20 579 l-3 547 -42 -1
c-23 0 -131 -21 -239 -47z"/>
    </g>
</svg>